<svg width="16" height="16" viewBox="0 0 16 16" fill="none" xmlns="http://www.w3.org/2000/svg">
<g clip-path="url(#clip0_16_21)">
<path d="M0 7.99895C0 6.91974 0.874992 6.04475 1.9542 6.04475L9.8218 6.04475L7.98779 3.88536C7.28867 3.06264 7.3898 1.83003 8.21252 1.13092C8.57991 0.818243 9.02937 0.666793 9.4764 0.666793C10.0304 0.666793 10.5805 0.900808 10.967 1.35565L15.5354 6.73458C16.1549 7.46349 16.1549 8.53586 15.5354 9.26429L10.967 14.6432C10.2678 15.4659 9.03524 15.5666 8.21252 14.8675C7.3898 14.1683 7.28867 12.9357 7.98779 12.113L9.8218 9.95363L1.9542 9.95363C0.874992 9.95363 0 9.07864 0 7.99895Z" fill="white"/>
</g>
<defs>
<clipPath id="clip0_16_21">
<rect width="16" height="16" fill="white" transform="matrix(-1 0 0 -1 16 16)"/>
</clipPath>
</defs>
</svg>
