<svg width="32" height="32" viewBox="0 0 32 32" fill="none" xmlns="http://www.w3.org/2000/svg">
<g clip-path="url(#clip0_48_11)">
<path d="M15.0709 23.9874C16.2905 23.9874 17.4251 23.6223 18.3771 23.0001L21.4025 26.0967L22.8321 24.6984L19.8486 21.6447C20.6516 20.616 21.135 19.3263 21.135 17.9234C21.135 14.5798 18.4144 11.8593 15.0709 11.8593C11.7274 11.8593 9.00684 14.5798 9.00684 17.9234C9.00684 21.2669 11.7274 23.9874 15.0709 23.9874ZM15.0709 13.8592C17.3119 13.8592 19.1351 15.6823 19.1351 17.9234C19.1351 20.1644 17.3119 21.9876 15.0709 21.9876C12.8299 21.9876 11.0067 20.1644 11.0067 17.9234C11.0067 15.6823 12.8299 13.8592 15.0709 13.8592Z" fill="#1F212B"/>
<path d="M28.4052 6.41267H27.0424C26.6842 5.95109 25.8418 4.47693 27.0944 1.99987H27.877V0H7.79371C5.47887 0 3.5957 1.88761 3.5957 4.20676V26.5941C3.5957 28.4875 4.11815 29.9308 5.14783 30.8839C6.24641 31.8994 7.54222 32 7.98558 32C8.06956 32 8.12279 31.9971 8.1384 31.9951H28.4052V6.41267ZM7.79371 1.99987H24.9104C24.8113 2.2594 24.7295 2.51069 24.6634 2.75474H13.6254V4.75461H24.4342C24.469 5.39651 24.6043 5.95285 24.784 6.41273H7.79371C6.58189 6.41273 5.59557 5.42354 5.59557 4.20682C5.59557 2.99004 6.58183 1.99987 7.79371 1.99987ZM26.4054 29.9952L8.06075 29.9982C8.05245 29.9952 7.178 30.0372 6.50614 29.4152C5.90166 28.8566 5.59557 27.9075 5.59557 26.5941V7.7886C6.23518 8.1841 6.98855 8.4126 7.79371 8.4126H26.4054V29.9952Z" fill="#1F212B"/>
</g>
<defs>
<clipPath id="clip0_48_11">
<rect width="32" height="32" fill="white"/>
</clipPath>
</defs>
</svg>
