<svg width="32" height="32" viewBox="0 0 32 32" fill="none" xmlns="http://www.w3.org/2000/svg">
<g clip-path="url(#clip0_57_3)">
<path d="M16 0C7.1792 0 0 7.1784 0 16C0 24.8216 7.1792 32 16 32C24.8232 32 32 24.8216 32 16C32 7.1784 24.8232 0 16 0ZM23.0544 14.3L16.2048 21.1512C15.728 21.6272 15.1032 21.8656 14.4784 21.8656C13.8552 21.8656 13.2296 21.6272 12.7536 21.1512L8.9472 17.3448C7.9944 16.392 7.9944 14.8456 8.9472 13.8944C9.9 12.9408 11.444 12.9408 12.3984 13.8944L14.4784 15.9744L19.6048 10.8488C20.5552 9.8976 22.1032 9.8976 23.0544 10.8488C24.008 11.8016 24.008 13.3472 23.0544 14.3Z" fill="#0DA949"/>
</g>
<defs>
<clipPath id="clip0_57_3">
<rect width="32" height="32" fill="white"/>
</clipPath>
</defs>
</svg>
