<svg width="44" height="44" viewBox="0 0 44 44" fill="none" xmlns="http://www.w3.org/2000/svg">
<path d="M22 6.60001C19.9776 6.60001 17.9751 6.99834 16.1067 7.77226C14.2382 8.54618 12.5406 9.68054 11.1105 11.1106C9.68051 12.5406 8.54615 14.2383 7.77223 16.1067C6.99831 17.9751 6.59998 19.9776 6.59998 22C6.59998 24.0224 6.99831 26.0249 7.77223 27.8933C8.54615 29.7617 9.68051 31.4594 11.1105 32.8895C12.5406 34.3195 14.2382 35.4538 16.1067 36.2278C17.9751 37.0017 19.9776 37.4 22 37.4C24.0223 37.4 26.0249 37.0017 27.8933 36.2278C29.7617 35.4538 31.4594 34.3195 32.8894 32.8895C34.3194 31.4594 35.4538 29.7617 36.2277 27.8933C37.0016 26.0249 37.4 24.0224 37.4 22C37.4 19.9776 37.0016 17.9751 36.2277 16.1067C35.4538 14.2383 34.3194 12.5406 32.8894 11.1106C31.4594 9.68054 29.7617 8.54618 27.8933 7.77226C26.0249 6.99834 24.0223 6.60001 22 6.60001Z" fill="#78A2D2"/>
<path d="M33.9842 28.1772C33.9517 28.1772 33.9191 28.1697 33.8879 28.1547C33.7788 28.1015 33.733 27.9699 33.7867 27.8608C33.8738 27.6813 33.9574 27.5004 34.0357 27.3183C34.3411 26.609 34.5844 25.8667 34.7586 25.1121C34.7864 24.9933 34.903 24.9194 35.0226 24.9471C35.1414 24.9748 35.2149 25.0928 35.1876 25.2111C35.0077 25.9912 34.756 26.759 34.4401 27.4925C34.3587 27.6813 34.2729 27.8683 34.1822 28.0535C34.1444 28.1318 34.0656 28.1772 33.9842 28.1772ZM35.3685 23.4934C35.3614 23.4934 35.3553 23.4929 35.3487 23.4925C35.2277 23.4819 35.1379 23.3746 35.1489 23.254C35.1744 22.9693 35.1907 22.6838 35.1978 22.3986C35.2426 20.6276 34.9386 18.8954 34.2953 17.2493C34.2509 17.1362 34.3068 17.0086 34.4203 16.9642C34.5334 16.9198 34.661 16.9761 34.705 17.0892C35.3698 18.7902 35.6835 20.5801 35.6373 22.4101C35.6298 22.7049 35.6127 22.9997 35.5867 23.2932C35.5766 23.4071 35.4811 23.4934 35.3685 23.4934ZM12.2034 13.0803C12.1492 13.0803 12.0956 13.061 12.0533 13.0209C11.9644 12.9382 11.96 12.7992 12.0428 12.7098C14.2643 10.3303 17.2708 8.82728 20.5075 8.47792C20.6294 8.4678 20.7367 8.55228 20.7499 8.67284C20.7631 8.7934 20.6756 8.90208 20.555 8.91528C17.4231 9.2532 14.5142 10.7074 12.3648 13.0099C12.3208 13.057 12.2623 13.0803 12.2034 13.0803ZM12.8823 32.025C12.8282 32.025 12.7745 32.0052 12.7322 31.9656C8.08891 27.6302 7.03115 20.7632 10.1604 15.2654C10.2203 15.1598 10.3545 15.1224 10.4605 15.1831C10.5661 15.2434 10.6031 15.3776 10.5428 15.4832C7.51515 20.8028 8.53903 27.4485 13.0328 31.6439C13.1216 31.7266 13.126 31.8661 13.0433 31.9546C12.9998 32.0012 12.9412 32.025 12.8823 32.025ZM27.8731 34.3204C27.7912 34.3204 27.7129 34.2747 27.6751 34.1959C27.6223 34.0868 27.668 33.9552 27.7776 33.9024C29.2402 33.1971 30.5496 32.2322 31.6685 31.0341C32.1195 30.5501 32.5371 30.0309 32.908 29.4897C32.9766 29.3898 33.1139 29.3643 33.2138 29.4329C33.3137 29.5016 33.3392 29.6384 33.2706 29.7387C32.8873 30.298 32.4561 30.8343 31.9897 31.3337C30.8334 32.5719 29.4808 33.5694 27.9681 34.298C27.9378 34.3134 27.9052 34.3204 27.8731 34.3204Z" fill="#1F212B"/>
<path d="M19.58 36.96V26.18H15.62V22.22H19.58V18.2728C19.4942 14.7312 22.1747 11.2856 28.38 13.196L28.3672 16.94L26.2108 16.9259C24.552 16.9259 23.9804 17.4742 23.9804 18.6692V22.22H28.7219L27.8885 26.18H23.98V36.96" fill="#FEFDEF"/>
<path d="M24.2 36.96H23.76V25.96H27.7099L28.4504 22.44H23.76V18.6692C23.76 17.2929 24.493 16.7059 26.2103 16.7059L28.1477 16.7187L28.1591 13.3597C25.4588 12.5602 23.2342 12.7442 21.7171 13.8926C20.4543 14.8491 19.7555 16.4437 19.7995 18.2675V22.44H15.8395V25.96H19.7995V36.96H19.3595V26.4H15.3995V22H19.3595V18.2728C19.312 16.3108 20.0745 14.5847 21.4513 13.5419C22.6111 12.6636 24.7663 11.854 28.4442 12.9857L28.6 13.0337L28.5859 17.1613L26.209 17.1455C24.5361 17.1455 24.2 17.7285 24.2 18.6688V22H28.9925L28.0667 26.4H24.2V36.96Z" fill="#1F212B"/>
<path d="M22 37.84C13.2656 37.84 6.16003 30.7344 6.16003 22C6.16003 13.2656 13.2656 6.16 22 6.16C30.7345 6.16 37.84 13.2656 37.84 22C37.84 30.7344 30.7345 37.84 22 37.84ZM22 7.04C13.7509 7.04 7.04003 13.7509 7.04003 22C7.04003 30.2491 13.7509 36.96 22 36.96C30.2492 36.96 36.96 30.2491 36.96 22C36.96 13.7509 30.2492 7.04 22 7.04Z" fill="#1F212B"/>
</svg>
