<svg width="44" height="44" viewBox="0 0 44 44" fill="none" xmlns="http://www.w3.org/2000/svg">
<path d="M30.7481 35.2H13.5881C10.6841 35.2 8.30811 32.824 8.30811 29.92V12.76C8.30811 9.856 10.6841 7.48 13.5881 7.48H30.7481C33.6521 7.48 36.0281 9.856 36.0281 12.76V29.92C36.0281 32.824 33.6521 35.2 30.7481 35.2Z" fill="#FDFCEE"/>
<path d="M30.748 35.64H13.588C10.4341 35.64 7.86804 33.0739 7.86804 29.92V12.76C7.86804 9.60607 10.4341 7.03999 13.588 7.03999H30.748C33.902 7.03999 36.468 9.60607 36.468 12.76V29.92C36.468 33.0739 33.902 35.64 30.748 35.64ZM13.588 7.91999C10.9194 7.91999 8.74804 10.0914 8.74804 12.76V29.92C8.74804 32.5886 10.9194 34.76 13.588 34.76H30.748C33.4166 34.76 35.588 32.5886 35.588 29.92V12.76C35.588 10.0914 33.4166 7.91999 30.748 7.91999H13.588Z" fill="#1F212B"/>
<path d="M34.0481 20.46V28.6717C34.0481 31.1731 32.0012 33.22 29.4998 33.22H14.8364C12.335 33.22 10.2881 31.1731 10.2881 28.6717V14.0083C10.2881 11.5069 12.335 9.46001 14.8364 9.46001H29.6481" fill="#FDFCEE"/>
<path d="M29.4998 33.44H14.8364C12.207 33.44 10.0681 31.3012 10.0681 28.6717V14.0083C10.0681 11.3788 12.207 9.24001 14.8364 9.24001H29.6481C29.7696 9.24001 29.8681 9.33857 29.8681 9.46001C29.8681 9.58145 29.7696 9.68001 29.6481 9.68001H14.8364C12.4498 9.68001 10.5081 11.6217 10.5081 14.0083V28.6717C10.5081 31.0583 12.4498 33 14.8364 33H29.4998C31.8864 33 33.8281 31.0583 33.8281 28.6717V20.46C33.8281 20.3386 33.9267 20.24 34.0481 20.24C34.1696 20.24 34.2681 20.3386 34.2681 20.46V28.6717C34.2681 31.3012 32.1293 33.44 29.4998 33.44Z" fill="#1F212B"/>
<path d="M34.0481 19.8C33.9267 19.8 33.8281 19.7014 33.8281 19.58V17.82C33.8281 17.6986 33.9267 17.6 34.0481 17.6C34.1696 17.6 34.2681 17.6986 34.2681 17.82V19.58C34.2681 19.7014 34.1696 19.8 34.0481 19.8ZM34.0481 17.16C33.9267 17.16 33.8281 17.0614 33.8281 16.94V16.06C33.8281 15.9386 33.9267 15.84 34.0481 15.84C34.1696 15.84 34.2681 15.9386 34.2681 16.06V16.94C34.2681 17.0614 34.1696 17.16 34.0481 17.16Z" fill="#1F212B"/>
<path d="M18.8874 20.4899V22.6345C18.8874 22.6345 20.9651 22.6301 21.8138 22.6301C21.354 24.0178 20.6434 24.7746 18.8874 24.7746C17.1107 24.7746 15.7269 23.3367 15.7269 21.56C15.7269 19.7833 17.1146 18.3454 18.8874 18.3454C19.8281 18.3454 20.434 18.6758 20.9901 19.1356C21.4376 18.6881 21.3998 18.6256 22.5328 17.5556C21.5714 16.6817 20.2919 16.1467 18.8918 16.1467C15.9029 16.1467 13.478 18.5715 13.478 21.5604C13.478 24.5494 15.9029 26.9742 18.8918 26.9742C23.3609 26.9742 24.4516 23.0824 24.0882 20.4904C23.0304 20.4899 18.8874 20.4899 18.8874 20.4899ZM28.6448 20.5942V18.7172H27.3072V20.5942H25.38V21.9318H27.3072V23.859H28.6448V21.9318H30.5219V20.5942H28.6448Z" fill="#F27C7D"/>
<path d="M18.8918 27.1938C15.7854 27.1938 13.2581 24.6664 13.2581 21.56C13.2581 18.4536 15.7854 15.9262 18.8918 15.9262C20.295 15.9262 21.6409 16.4468 22.6807 17.3923C22.7264 17.4337 22.7524 17.4918 22.7528 17.5529C22.7533 17.6141 22.7282 17.673 22.6842 17.7148C21.9463 18.4118 21.7149 18.6718 21.5103 18.9011C21.4016 19.023 21.3026 19.1334 21.1459 19.2905C21.0663 19.371 20.9378 19.3767 20.8503 19.3046C20.3856 18.9204 19.8264 18.5649 18.8879 18.5649C17.2387 18.5649 15.9469 19.8805 15.9469 21.5596C15.9469 23.2386 17.2387 24.5542 18.8879 24.5542C20.4622 24.5542 21.0936 23.9096 21.5019 22.8496C20.5427 22.8501 18.8883 22.8536 18.8883 22.8536H18.8879C18.8293 22.8536 18.7735 22.8303 18.7321 22.7894C18.6907 22.748 18.6679 22.6921 18.6679 22.6336V20.489C18.6679 20.3676 18.7664 20.269 18.8879 20.269H24.0882C24.1978 20.269 24.2911 20.35 24.306 20.4587C24.5124 21.9292 24.2748 24.028 22.9882 25.5072C22.0154 26.6266 20.6373 27.1938 18.8918 27.1938ZM18.8918 16.3662C16.0279 16.3662 13.6981 18.696 13.6981 21.56C13.6981 24.424 16.0279 26.7538 18.8918 26.7538C20.5044 26.7538 21.7712 26.2376 22.6565 25.219C23.7921 23.9131 24.0416 22.0704 23.8942 20.7099H19.1079V22.414C19.6653 22.4132 21.1336 22.4101 21.8139 22.4101C21.8843 22.4101 21.9511 22.444 21.9921 22.5012C22.0334 22.5584 22.0449 22.6323 22.0224 22.6992C21.4821 24.3298 20.5739 24.9946 18.8874 24.9946C16.9915 24.9946 15.5065 23.4859 15.5065 21.56C15.5065 19.6341 16.9915 18.1254 18.8874 18.1254C19.8581 18.1254 20.489 18.4681 20.9713 18.839C21.0496 18.7563 21.1134 18.6846 21.1816 18.6085C21.3743 18.392 21.5912 18.1491 22.2055 17.5626C21.2744 16.7895 20.1062 16.3662 18.8918 16.3662ZM28.6449 24.0794H27.3073C27.1858 24.0794 27.0873 23.9809 27.0873 23.8594V22.1522H25.3801C25.2586 22.1522 25.1601 22.0537 25.1601 21.9322V20.5942C25.1601 20.4728 25.2586 20.3742 25.3801 20.3742H27.0873V18.7172C27.0873 18.5957 27.1858 18.4972 27.3073 18.4972H28.6449C28.7663 18.4972 28.8649 18.5957 28.8649 18.7172V20.3742H30.5223C30.6438 20.3742 30.7423 20.4728 30.7423 20.5942V21.9322C30.7423 22.0537 30.6438 22.1522 30.5223 22.1522H28.8649V23.8594C28.8649 23.9809 28.7663 24.0794 28.6449 24.0794ZM27.5273 23.6394H28.4249V21.9322C28.4249 21.8108 28.5234 21.7122 28.6449 21.7122H30.3023V20.8142H28.6449C28.5234 20.8142 28.4249 20.7156 28.4249 20.5942V18.9372H27.5273V20.5942C27.5273 20.7156 27.4287 20.8142 27.3073 20.8142H25.6001V21.7122H27.3073C27.4287 21.7122 27.5273 21.8108 27.5273 21.9322V23.6394Z" fill="#1F212B"/>
</svg>
