<svg width="264" height="98" viewBox="0 0 264 98" fill="none" xmlns="http://www.w3.org/2000/svg">
<path d="M101.304 57V34.344H109.72C114.424 34.344 118.328 35.848 118.328 41.224C118.328 46.536 114.712 48.168 109.944 48.168H106.296V57H101.304ZM106.296 38.568V43.944H109.624C111.384 43.944 113.144 43.336 113.144 41.224C113.144 38.888 110.776 38.568 108.856 38.568H106.296ZM120.852 57V41.448H125.652V43.944H125.716C126.74 42.056 128.084 41.064 130.196 41.064C130.74 41.064 131.348 41.096 131.796 41.224V45.608C131.124 45.416 130.452 45.288 129.748 45.288C126.1 45.288 125.652 47.4 125.652 50.504V57H120.852ZM133.948 57V41.448H138.748V57H133.948ZM133.564 36.552C133.564 35.016 134.812 33.768 136.348 33.768C137.884 33.768 139.132 35.016 139.132 36.552C139.132 38.088 137.884 39.336 136.348 39.336C134.812 39.336 133.564 38.088 133.564 36.552ZM142.196 57V41.448H146.804V43.56H146.868C147.508 42.344 149.076 41.064 151.412 41.064C153.588 41.064 155.38 41.96 156.212 43.848C157.332 41.864 158.836 41.064 161.14 41.064C165.364 41.064 166.644 44.04 166.644 47.816V57H161.844V47.944C161.844 46.504 161.3 45.288 159.732 45.288C157.524 45.288 156.82 46.856 156.82 48.776V57H152.02V48.776C152.02 47.624 152.084 45.288 149.876 45.288C147.38 45.288 146.996 47.24 146.996 49.256V57H142.196ZM181.4 51.848L184.76 54.312C183.224 56.264 180.696 57.384 178.2 57.384C173.4 57.384 169.56 54.184 169.56 49.224C169.56 44.264 173.4 41.064 178.2 41.064C182.68 41.064 185.496 44.264 185.496 49.224V50.728H174.36C174.744 52.552 176.12 53.736 177.976 53.736C179.544 53.736 180.6 52.936 181.4 51.848ZM174.36 47.464H180.696C180.728 45.864 179.48 44.52 177.752 44.52C175.64 44.52 174.488 45.96 174.36 47.464ZM202.876 57V38.76H196.412V34.344H214.332V38.76H207.868V57H202.876ZM224.056 51.848L227.416 54.312C225.88 56.264 223.352 57.384 220.856 57.384C216.056 57.384 212.216 54.184 212.216 49.224C212.216 44.264 216.056 41.064 220.856 41.064C225.336 41.064 228.152 44.264 228.152 49.224V50.728H217.016C217.4 52.552 218.776 53.736 220.632 53.736C222.2 53.736 223.256 52.936 224.056 51.848ZM217.016 47.464H223.352C223.384 45.864 222.136 44.52 220.408 44.52C218.296 44.52 217.144 45.96 217.016 47.464ZM244.767 43.144L241.599 46.472C241.119 45.8 240.223 45.288 239.231 45.288C236.831 45.288 235.391 46.888 235.391 49.224C235.391 51.56 236.831 53.16 239.231 53.16C240.287 53.16 241.055 52.616 241.599 51.976L244.767 55.304C243.263 56.84 241.055 57.384 239.231 57.384C234.431 57.384 230.591 54.184 230.591 49.224C230.591 44.264 234.431 41.064 239.231 41.064C241.055 41.064 243.263 41.608 244.767 43.144ZM246.509 32.808H251.309V43.56H251.373C251.821 42.344 253.389 41.064 255.725 41.064C260.589 41.064 261.485 44.264 261.485 48.424V57H256.685V49.384C256.685 47.592 256.653 45.288 254.189 45.288C251.693 45.288 251.309 47.24 251.309 49.256V57H246.509V32.808Z" fill="black"/>
<rect y="19" width="50" height="50" rx="10" fill="#374785"/>
<circle cx="52" cy="25" r="25" fill="#F8E9A1"/>
<path d="M80.0099 48.8206C86.4598 52.7453 86.4005 62.1285 79.9013 65.9713L51.4847 82.7733C44.7943 86.7291 36.3461 81.8744 36.3953 74.1021L36.6102 40.1399C36.6593 32.3676 45.1682 27.6201 51.8081 31.6603L80.0099 48.8206Z" fill="#F76C6C"/>
</svg>
