<svg width="44" height="44" viewBox="0 0 44 44" fill="none" xmlns="http://www.w3.org/2000/svg">
<path d="M39.16 11.44C39.16 11.44 37.0594 12.0534 35.1309 12.096C35.0979 12.012 35.071 11.9253 35.035 11.8426C37.4083 10.3083 38.06 8.36 38.06 8.36C38.06 8.36 35.7385 9.62324 33.5759 9.67516C32.2572 8.3226 30.418 7.48 28.38 7.48C24.3702 7.48 21.12 10.7303 21.12 14.74C21.12 15.4062 21.2172 16.0481 21.3853 16.6606C11.3379 16.005 6.48997 9.74204 5.80489 8.8C5.19109 9.86524 4.83997 11.2222 4.83997 12.54C4.83997 15.2517 6.45125 17.8116 8.79997 18.92C6.15997 18.92 4.83997 18.04 4.83997 18.04C4.83997 21.7809 7.75585 24.8538 11.44 25.08C10.6119 25.3739 9.72881 25.52 8.79997 25.52C8.40089 25.52 7.82625 25.4874 7.44301 25.4307L7.47997 25.52C8.65433 28.2968 11.7686 30.2707 14.96 30.36C12.5087 32.5512 9.04637 33.88 5.49997 33.88H4.83997C7.47997 35.64 11.0488 36.52 14.74 36.52C26.2829 36.52 35.64 27.163 35.64 15.62C35.64 15.62 35.6285 14.546 35.6246 14.4487C37.84 13.2 39.16 11.44 39.16 11.44Z" fill="#78A1D1"/>
<path d="M14.74 36.96C10.8236 36.96 7.22127 35.9964 4.59579 34.2461C4.43431 34.1387 4.36259 33.9381 4.41891 33.7524C4.47479 33.5667 4.64639 33.44 4.83999 33.44H5.49999C8.53599 33.44 11.5227 32.4513 13.8516 30.7001C10.8671 30.2408 8.17299 28.2889 7.07475 25.6912L7.03647 25.5983C6.97619 25.4522 6.99907 25.2842 7.09631 25.1596C7.19355 25.0347 7.35063 24.9722 7.50771 24.9951C7.88303 25.051 8.44183 25.08 8.79999 25.08C8.95927 25.08 9.11723 25.0752 9.27387 25.0664C6.41827 24.002 4.39999 21.2397 4.39999 18.04C4.39999 17.8776 4.48931 17.7285 4.63231 17.6519C4.77487 17.5749 4.94823 17.5833 5.08375 17.6739C5.09167 17.6788 5.76839 18.1104 7.09543 18.3396C5.43707 16.9387 4.39999 14.7827 4.39999 12.54C4.39999 11.1527 4.77311 9.70903 5.42387 8.57999C5.49823 8.45107 5.63287 8.36835 5.78159 8.36043C5.93339 8.35075 6.07331 8.42071 6.16087 8.54083C6.99555 9.68835 11.5592 15.3498 20.8204 16.1757C20.7271 15.6948 20.68 15.2143 20.68 14.74C20.68 10.4944 24.1344 7.03999 28.38 7.03999C30.404 7.03999 32.3035 7.81527 33.7506 9.22767C35.7262 9.11503 37.8286 7.98511 37.8497 7.97367C38.0072 7.88787 38.2034 7.90679 38.3425 8.02295C38.4806 8.13911 38.5347 8.32831 38.4771 8.49947C38.452 8.57383 37.9152 10.1284 36.1337 11.5861C37.6446 11.4193 39.0201 11.0224 39.0368 11.0176C39.2176 10.9652 39.4134 11.0339 39.5221 11.1896C39.6299 11.3454 39.6259 11.5526 39.5124 11.704C39.4583 11.7762 38.2012 13.4341 36.0694 14.7C36.0747 15.052 36.0804 15.6156 36.0804 15.6156C36.08 27.3869 26.5069 36.96 14.74 36.96ZM6.42619 34.2914C8.73883 35.4517 11.631 36.08 14.74 36.08C26.022 36.08 35.2 26.902 35.2 15.62C35.2 15.62 35.189 14.5622 35.185 14.4659C35.1784 14.3009 35.2651 14.146 35.4085 14.065C36.4483 13.479 37.2878 12.7701 37.873 12.2008C37.0999 12.3574 36.1051 12.514 35.141 12.5356C35.1375 12.5356 35.134 12.5356 35.1313 12.5356C34.951 12.5356 34.7882 12.4252 34.7217 12.2566L34.679 12.1418C34.6641 12.1004 34.6495 12.0586 34.6319 12.0182C34.5462 11.8206 34.6157 11.5896 34.7965 11.4726C35.9044 10.7567 36.6163 9.94179 37.0515 9.30643C36.1442 9.67119 34.8497 10.0844 33.5869 10.1143C33.4492 10.1248 33.3467 10.0694 33.2614 9.98183C31.9642 8.65259 30.2306 7.91999 28.38 7.91999C24.6193 7.91999 21.56 10.9793 21.56 14.74C21.56 15.3331 21.644 15.9403 21.8095 16.5444C21.8469 16.6817 21.8161 16.8287 21.7263 16.9387C21.6361 17.0487 21.4953 17.1068 21.3567 17.0997C12.3948 16.5145 7.47823 11.5575 5.88455 9.61883C5.49647 10.5059 5.27999 11.5377 5.27999 12.54C5.27999 15.0713 6.76983 17.4755 8.98787 18.5222C9.17399 18.6102 9.27431 18.8157 9.22943 19.0164C9.18455 19.217 9.00591 19.36 8.79999 19.36C7.16099 19.36 6.00027 19.0331 5.31915 18.762C5.66367 21.9208 8.24031 24.4429 11.4668 24.6409C11.6758 24.6536 11.8466 24.8116 11.8756 25.0184C11.9046 25.2252 11.7841 25.4245 11.587 25.4945C10.7171 25.8038 9.77943 25.96 8.79999 25.96C8.62619 25.96 8.40443 25.9538 8.17299 25.9406C9.43799 28.2335 12.1383 29.8408 14.9723 29.92C15.1527 29.9253 15.3116 30.0392 15.3731 30.2086C15.4352 30.378 15.3877 30.5677 15.2535 30.6878C12.8924 32.7985 9.71739 34.0864 6.42619 34.2914Z" fill="#1F212B"/>
<path d="M23.1304 15.4C23.0177 15.4 22.9214 15.3138 22.9117 15.1989L22.9024 15.103C22.891 14.9816 22.88 14.8597 22.88 14.74C22.88 14.6186 22.9786 14.52 23.1 14.52C23.2214 14.52 23.32 14.6186 23.32 14.74C23.32 14.846 23.3306 14.9538 23.3411 15.0612L23.3504 15.1606C23.3609 15.2816 23.2712 15.3886 23.1506 15.3991C23.144 15.4 23.137 15.4 23.1304 15.4Z" fill="#1F212B"/>
<path d="M23.1797 14.08C23.1674 14.08 23.1546 14.0791 23.1423 14.0769C23.0231 14.0567 22.9421 13.9427 22.9623 13.823C23.0437 13.3452 23.1863 12.8823 23.3869 12.4476C23.4384 12.3372 23.5695 12.2892 23.6786 12.3398C23.7891 12.3908 23.8371 12.5215 23.7865 12.632C23.6021 13.0315 23.4705 13.457 23.3962 13.8965C23.3777 14.0043 23.2849 14.08 23.1797 14.08Z" fill="#1F212B"/>
<path d="M24.4556 11.44C24.4032 11.44 24.3509 11.4215 24.3086 11.3837C24.2184 11.3023 24.2105 11.1637 24.2919 11.073C25.3378 9.90837 26.8281 9.24001 28.38 9.24001C29.7321 9.24001 31.0345 9.74205 32.0474 10.6533C32.1376 10.7347 32.145 10.8737 32.0636 10.9639C31.9814 11.0546 31.8432 11.062 31.7526 10.9802C30.8211 10.142 29.6234 9.68001 28.38 9.68001C26.9526 9.68001 25.582 10.2947 24.6193 11.367C24.5757 11.4154 24.5159 11.44 24.4556 11.44Z" fill="#1F212B"/>
<path d="M14.74 34.76C14.6498 34.76 14.5609 34.7565 14.472 34.753L14.2956 34.7468C14.1742 34.7442 14.0778 34.6438 14.08 34.5224C14.0826 34.401 14.1838 34.3138 14.3044 34.3068L14.4892 34.313C14.5724 34.3165 14.6555 34.32 14.74 34.32C14.8614 34.32 14.96 34.4186 14.96 34.54C14.96 34.6614 14.8614 34.76 14.74 34.76Z" fill="#1F212B"/>
<path d="M20.9 33.7247C20.8085 33.7247 20.7236 33.6675 20.6919 33.5764C20.6523 33.4616 20.713 33.3362 20.8283 33.2966C25.6155 31.643 29.5843 28.0531 31.7166 23.4472C31.7676 23.3367 31.8983 23.2888 32.0087 23.3398C32.1192 23.3908 32.1667 23.522 32.1161 23.632C29.9337 28.3461 25.8716 32.0197 20.9718 33.7124C20.948 33.7212 20.9238 33.7247 20.9 33.7247Z" fill="#1F212B"/>
<path d="M16.0601 34.709C15.9457 34.709 15.8489 34.6205 15.8405 34.5044C15.8321 34.3834 15.9237 34.2778 16.0447 34.2694C16.7799 34.2184 17.5112 34.1242 18.2191 33.9904C18.3388 33.968 18.4537 34.0463 18.4761 34.1656C18.4985 34.2848 18.4202 34.4001 18.301 34.4225C17.5767 34.5598 16.8279 34.6557 16.0755 34.7081C16.0702 34.709 16.0649 34.709 16.0601 34.709Z" fill="#1F212B"/>
</svg>
